<svg width="130" height="40" viewBox="0 0 130 40" fill="none" xmlns="http://www.w3.org/2000/svg">
    <rect width="130" height="40" rx="4" fill="#E5ECF4" />
    <path fill-rule="evenodd" clip-rule="evenodd"
        d="M42.5143 30.5356C42.1905 30.788 41.7048 30.9142 41.0572 30.9142C40.6001 30.9142 40.1715 30.8284 39.7715 30.657C39.3715 30.4856 39.0239 30.2308 38.7286 29.8927C38.4334 29.5546 38.2001 29.1356 38.0286 28.6356C37.8572 28.1356 37.7715 27.5523 37.7715 26.8856V24.5427C37.7715 23.8951 37.8643 23.3213 38.0501 22.8213C38.2358 22.3213 38.4929 21.8999 38.8215 21.557C39.1501 21.2142 39.5429 20.9546 40.0001 20.7784C40.4572 20.6023 40.962 20.5142 41.5143 20.5142C42.0858 20.5142 42.5953 20.607 43.0429 20.7927C43.4905 20.9784 43.8715 21.2356 44.1858 21.5642C44.5001 21.8927 44.7382 22.2784 44.9001 22.7213C45.062 23.1642 45.1429 23.638 45.1429 24.1427V24.3142H43.2572V24.1427C43.2572 23.5427 43.1024 23.088 42.7929 22.7784C42.4834 22.4689 42.0477 22.3142 41.4858 22.3142C40.9524 22.3142 40.5143 22.4927 40.1715 22.8499C39.8286 23.207 39.6572 23.8189 39.6572 24.6856V26.7999C39.6572 28.3427 40.2858 29.1142 41.5429 29.1142C42.1048 29.1142 42.531 28.9642 42.8215 28.6642C43.112 28.3642 43.2572 27.9618 43.2572 27.457H40.8572V25.657H45.1429V30.7142H43.4286V29.5999H43.1715C43.0572 29.9713 42.8382 30.2832 42.5143 30.5356ZM51.0123 30.6713C50.5694 30.8332 50.1052 30.9142 49.6194 30.9142C49.1337 30.9142 48.6694 30.8332 48.2266 30.6713C47.7837 30.5094 47.3909 30.2737 47.048 29.9642C46.7052 29.6546 46.4337 29.2737 46.2337 28.8213C46.0337 28.3689 45.9337 27.8475 45.9337 27.257V27.0856C45.9337 26.5046 46.0337 25.988 46.2337 25.5356C46.4337 25.0832 46.7052 24.6999 47.048 24.3856C47.3909 24.0713 47.7837 23.8332 48.2266 23.6713C48.6694 23.5094 49.1337 23.4284 49.6194 23.4284C50.1052 23.4284 50.5694 23.5094 51.0123 23.6713C51.4552 23.8332 51.848 24.0713 52.1909 24.3856C52.5337 24.6999 52.8052 25.0832 53.0052 25.5356C53.2052 25.988 53.3052 26.5046 53.3052 27.0856V27.257C53.3052 27.8475 53.2052 28.3689 53.0052 28.8213C52.8052 29.2737 52.5337 29.6546 52.1909 29.9642C51.848 30.2737 51.4552 30.5094 51.0123 30.6713ZM49.6194 29.1999C49.3623 29.1999 49.1194 29.157 48.8909 29.0713C48.6623 28.9856 48.4623 28.8618 48.2909 28.6999C48.1194 28.538 47.9837 28.3404 47.8837 28.107C47.7837 27.8737 47.7337 27.6094 47.7337 27.3142V27.0284C47.7337 26.7332 47.7837 26.4689 47.8837 26.2356C47.9837 26.0023 48.1194 25.8046 48.2909 25.6427C48.4623 25.4808 48.6623 25.357 48.8909 25.2713C49.1194 25.1856 49.3623 25.1427 49.6194 25.1427C49.8766 25.1427 50.1194 25.1856 50.348 25.2713C50.5766 25.357 50.7766 25.4808 50.948 25.6427C51.1194 25.8046 51.2552 26.0023 51.3552 26.2356C51.4552 26.4689 51.5052 26.7332 51.5052 27.0284V27.3142C51.5052 27.6094 51.4552 27.8737 51.3552 28.107C51.2552 28.3404 51.1194 28.538 50.948 28.6999C50.7766 28.8618 50.5766 28.9856 50.348 29.0713C50.1194 29.157 49.8766 29.1999 49.6194 29.1999ZM59.1174 30.6713C58.6745 30.8332 58.2103 30.9142 57.7245 30.9142C57.2388 30.9142 56.7745 30.8332 56.3317 30.6713C55.8888 30.5094 55.496 30.2737 55.1531 29.9642C54.8103 29.6546 54.5388 29.2737 54.3388 28.8213C54.1388 28.3689 54.0388 27.8475 54.0388 27.257V27.0856C54.0388 26.5046 54.1388 25.988 54.3388 25.5356C54.5388 25.0832 54.8103 24.6999 55.1531 24.3856C55.496 24.0713 55.8888 23.8332 56.3317 23.6713C56.7745 23.5094 57.2388 23.4284 57.7245 23.4284C58.2103 23.4284 58.6745 23.5094 59.1174 23.6713C59.5603 23.8332 59.9531 24.0713 60.296 24.3856C60.6388 24.6999 60.9103 25.0832 61.1103 25.5356C61.3103 25.988 61.4103 26.5046 61.4103 27.0856V27.257C61.4103 27.8475 61.3103 28.3689 61.1103 28.8213C60.9103 29.2737 60.6388 29.6546 60.296 29.9642C59.9531 30.2737 59.5603 30.5094 59.1174 30.6713ZM57.7245 29.1999C57.4674 29.1999 57.2245 29.157 56.996 29.0713C56.7674 28.9856 56.5674 28.8618 56.396 28.6999C56.2245 28.538 56.0888 28.3404 55.9888 28.107C55.8888 27.8737 55.8388 27.6094 55.8388 27.3142V27.0284C55.8388 26.7332 55.8888 26.4689 55.9888 26.2356C56.0888 26.0023 56.2245 25.8046 56.396 25.6427C56.5674 25.4808 56.7674 25.357 56.996 25.2713C57.2245 25.1856 57.4674 25.1427 57.7245 25.1427C57.9817 25.1427 58.2245 25.1856 58.4531 25.2713C58.6817 25.357 58.8817 25.4808 59.0531 25.6427C59.2245 25.8046 59.3603 26.0023 59.4603 26.2356C59.5603 26.4689 59.6103 26.7332 59.6103 27.0284V27.3142C59.6103 27.6094 59.5603 27.8737 59.4603 28.107C59.3603 28.3404 59.2245 28.538 59.0531 28.6999C58.8817 28.8618 58.6817 28.9856 58.4531 29.0713C58.2245 29.157 57.9817 29.1999 57.7245 29.1999ZM69.1225 33.257C68.9177 33.4665 68.6535 33.5713 68.3296 33.5713H63.5582V31.857H67.2439C67.5011 31.857 67.6296 31.7142 67.6296 31.4284V29.6856H67.3725C67.2963 29.8475 67.2035 30.0023 67.0939 30.1499C66.9844 30.2975 66.8416 30.4284 66.6654 30.5427C66.4892 30.657 66.2796 30.7475 66.0368 30.8142C65.7939 30.8808 65.5011 30.9142 65.1582 30.9142C64.7201 30.9142 64.313 30.8356 63.9368 30.6784C63.5606 30.5213 63.232 30.288 62.9511 29.9784C62.6701 29.6689 62.4511 29.2904 62.2939 28.8427C62.1368 28.3951 62.0582 27.8808 62.0582 27.2999V27.0427C62.0582 26.4713 62.1416 25.9618 62.3082 25.5142C62.4749 25.0665 62.7035 24.688 62.9939 24.3784C63.2844 24.0689 63.6225 23.8332 64.0082 23.6713C64.3939 23.5094 64.8011 23.4284 65.2296 23.4284C65.8011 23.4284 66.2535 23.5356 66.5868 23.7499C66.9201 23.9642 67.182 24.2665 67.3725 24.657H67.6296V23.6284H69.4296V32.457C69.4296 32.7808 69.3273 33.0475 69.1225 33.257ZM65.7439 29.1999C65.182 29.1999 64.7273 29.0261 64.3796 28.6784C64.032 28.3308 63.8582 27.857 63.8582 27.257V27.0856C63.8582 26.4856 64.032 26.0118 64.3796 25.6642C64.7273 25.3165 65.182 25.1427 65.7439 25.1427C66.3058 25.1427 66.7606 25.3213 67.1082 25.6784C67.4558 26.0356 67.6296 26.5046 67.6296 27.0856V27.257C67.6296 27.838 67.4558 28.307 67.1082 28.6642C66.7606 29.0213 66.3058 29.1999 65.7439 29.1999ZM77.2347 28.9999V30.7142H70.6348V28.9999H73.1205V22.4284H70.7205V20.7142H74.9205V28.9999H77.2347ZM82.1113 30.9142C82.5779 30.9142 82.9851 30.8618 83.3327 30.757C83.6803 30.6523 83.9756 30.5189 84.2184 30.357C84.4613 30.1951 84.6589 30.0165 84.8113 29.8213C84.9637 29.6261 85.0827 29.438 85.1684 29.257L83.6256 28.3999C83.5208 28.6189 83.3494 28.807 83.1113 28.9642C82.8732 29.1213 82.5303 29.1999 82.0827 29.1999C81.8541 29.1999 81.6375 29.1642 81.4327 29.0927C81.2279 29.0213 81.047 28.9213 80.8899 28.7927C80.7327 28.6642 80.6089 28.5118 80.5184 28.3356C80.4279 28.1594 80.3779 27.9665 80.3684 27.757H85.5684V26.7999C85.5684 26.4284 85.5018 26.0451 85.3684 25.6499C85.2351 25.2546 85.0256 24.8927 84.7399 24.5642C84.4541 24.2356 84.0922 23.9642 83.6541 23.7499C83.216 23.5356 82.6922 23.4284 82.0827 23.4284C81.5875 23.4284 81.1232 23.5165 80.6898 23.6927C80.2565 23.8689 79.8779 24.1142 79.5541 24.4284C79.2303 24.7427 78.9756 25.1237 78.7899 25.5713C78.6041 26.0189 78.5113 26.5142 78.5113 27.057V27.1427C78.5113 27.7332 78.5994 28.2618 78.7756 28.7284C78.9518 29.1951 79.1994 29.5904 79.5184 29.9142C79.8375 30.238 80.216 30.4856 80.6541 30.657C81.0922 30.8284 81.5779 30.9142 82.1113 30.9142ZM80.397 26.2142H83.7399C83.6827 25.8808 83.5041 25.6046 83.2041 25.3856C82.9041 25.1665 82.5256 25.057 82.0684 25.057C81.6113 25.057 81.2399 25.1737 80.9541 25.407C80.6684 25.6404 80.4827 25.9094 80.397 26.2142ZM88.6878 30.7142V26.9427H90.7164C91.2307 26.9427 91.6783 26.857 92.0592 26.6856C92.4402 26.5142 92.7569 26.288 93.0092 26.007C93.2616 25.7261 93.4521 25.407 93.5807 25.0499C93.7092 24.6927 93.7735 24.3284 93.7735 23.957V23.6142C93.7735 23.2523 93.7092 22.8975 93.5807 22.5499C93.4521 22.2023 93.2616 21.8927 93.0092 21.6213C92.7569 21.3499 92.4402 21.1308 92.0592 20.9642C91.6783 20.7975 91.2307 20.7142 90.7164 20.7142H86.8021V30.7142H88.6878ZM88.6878 25.1427H90.5307C90.9497 25.1427 91.2807 25.0284 91.5235 24.7999C91.7664 24.5713 91.8878 24.2761 91.8878 23.9142V23.7427C91.8878 23.3808 91.7664 23.0856 91.5235 22.857C91.2807 22.6284 90.9497 22.5142 90.5307 22.5142H88.6878V25.1427ZM101.55 30.7142V28.9999H99.2358V20.7142H95.0358V22.4284H97.4358V28.9999H94.9501V30.7142H101.55ZM106.884 30.6356C106.541 30.8213 106.141 30.9142 105.684 30.9142C105.255 30.9142 104.853 30.8332 104.477 30.6713C104.1 30.5094 103.769 30.2713 103.484 29.957C103.198 29.6427 102.972 29.2618 102.805 28.8142C102.638 28.3665 102.555 27.857 102.555 27.2856V27.057C102.555 26.4951 102.636 25.9904 102.798 25.5427C102.96 25.0951 103.179 24.7142 103.455 24.3999C103.731 24.0856 104.053 23.8451 104.419 23.6784C104.786 23.5118 105.179 23.4284 105.598 23.4284C106.103 23.4284 106.51 23.5142 106.819 23.6856C107.129 23.857 107.374 24.1237 107.555 24.4856H107.812V23.6284H109.612V28.5713C109.612 28.857 109.741 28.9999 109.998 28.9999H110.269V30.7142H109.041C108.717 30.7142 108.453 30.6189 108.248 30.4284C108.043 30.238 107.941 29.9904 107.941 29.6856H107.684C107.493 30.1332 107.227 30.4499 106.884 30.6356ZM106.084 29.1999C105.56 29.1999 105.141 29.0261 104.827 28.6784C104.512 28.3308 104.355 27.857 104.355 27.257V27.0856C104.355 26.4856 104.512 26.0118 104.827 25.6642C105.141 25.3165 105.56 25.1427 106.084 25.1427C106.608 25.1427 107.027 25.3165 107.341 25.6642C107.655 26.0118 107.812 26.4856 107.812 27.0856V27.257C107.812 27.857 107.655 28.3308 107.341 28.6784C107.027 29.0261 106.608 29.1999 106.084 29.1999ZM117.496 33.257C117.291 33.4665 117.027 33.5713 116.703 33.5713H112.489V31.857H115.617C115.875 31.857 116.003 31.7142 116.003 31.4284V29.6856H115.746C115.432 30.5046 114.756 30.9142 113.717 30.9142C113.365 30.9142 113.036 30.857 112.732 30.7427C112.427 30.6284 112.16 30.4523 111.932 30.2142C111.703 29.9761 111.525 29.6784 111.396 29.3213C111.267 28.9642 111.203 28.5427 111.203 28.057V23.6284H113.003V27.6856C113.003 28.1904 113.122 28.5832 113.36 28.8642C113.598 29.1451 113.955 29.2856 114.432 29.2856C114.975 29.2856 115.372 29.1118 115.625 28.7642C115.877 28.4165 116.003 27.9427 116.003 27.3427V23.6284H117.803V32.457C117.803 32.7808 117.701 33.0475 117.496 33.257Z"
        fill="#495567" />
    <path fill-rule="evenodd" clip-rule="evenodd"
        d="M55.6177 9.65744C55.7082 9.65744 55.7951 9.63958 55.8784 9.60386C55.9618 9.56815 56.0344 9.52053 56.0963 9.46101C56.1582 9.40148 56.207 9.33005 56.2427 9.24672C56.2784 9.16339 56.2963 9.0741 56.2963 8.97886C56.2963 8.88363 56.2784 8.79434 56.2427 8.71101C56.207 8.62767 56.1582 8.55625 56.0963 8.49672C56.0344 8.4372 55.9618 8.38958 55.8784 8.35386C55.7951 8.31815 55.7082 8.30029 55.6177 8.30029C55.5225 8.30029 55.4344 8.31815 55.3534 8.35386C55.2725 8.38958 55.2011 8.4372 55.1392 8.49672C55.0772 8.55625 55.0284 8.62767 54.9927 8.71101C54.957 8.79434 54.9392 8.88363 54.9392 8.97886C54.9392 9.0741 54.957 9.16339 54.9927 9.24672C55.0284 9.33005 55.0772 9.40148 55.1392 9.46101C55.2011 9.52053 55.2725 9.56815 55.3534 9.60386C55.4344 9.63958 55.5225 9.65744 55.6177 9.65744ZM39.8289 13.4824C39.667 13.6086 39.4242 13.6717 39.1004 13.6717C38.8718 13.6717 38.6575 13.6289 38.4575 13.5432C38.2575 13.4574 38.0837 13.3301 37.9361 13.161C37.7885 12.992 37.6718 12.7824 37.5861 12.5324C37.5004 12.2824 37.4575 11.9908 37.4575 11.6574V10.486C37.4575 10.1622 37.5039 9.87529 37.5968 9.62529C37.6897 9.37529 37.8182 9.16458 37.9825 8.99315C38.1468 8.82172 38.3432 8.69196 38.5718 8.60386C38.8004 8.51577 39.0528 8.47172 39.3289 8.47172C39.6147 8.47172 39.8694 8.51815 40.0932 8.61101C40.317 8.70386 40.5075 8.83244 40.6647 8.99672C40.8218 9.16101 40.9409 9.35386 41.0218 9.57529C41.1028 9.79672 41.1432 10.0336 41.1432 10.286V10.3717H40.2004V10.286C40.2004 9.98601 40.123 9.75863 39.9682 9.60386C39.8135 9.4491 39.5956 9.37172 39.3147 9.37172C39.048 9.37172 38.8289 9.46101 38.6575 9.63958C38.4861 9.81815 38.4004 10.1241 38.4004 10.5574V11.6146C38.4004 12.386 38.7147 12.7717 39.3432 12.7717C39.6242 12.7717 39.8373 12.6967 39.9825 12.5467C40.1278 12.3967 40.2004 12.1955 40.2004 11.9432H39.0004V11.0432H41.1432V13.5717H40.2861V13.0146H40.1575C40.1004 13.2003 39.9909 13.3562 39.8289 13.4824ZM44.0279 13.5932C43.8541 13.6455 43.6505 13.6717 43.4172 13.6717C43.1505 13.6717 42.9077 13.6289 42.6886 13.5431C42.4696 13.4574 42.2803 13.3336 42.1208 13.1717C41.9613 13.0098 41.8375 12.8122 41.7494 12.5789C41.6613 12.3455 41.6172 12.0812 41.6172 11.786V11.7432C41.6172 11.4717 41.6636 11.2241 41.7565 11.0003C41.8494 10.7765 41.9767 10.586 42.1386 10.4289C42.3005 10.2717 42.4898 10.1491 42.7065 10.061C42.9232 9.97291 43.1553 9.92886 43.4029 9.92886C43.7077 9.92886 43.9696 9.98244 44.1886 10.0896C44.4077 10.1967 44.5886 10.3324 44.7315 10.4967C44.8744 10.661 44.9791 10.842 45.0458 11.0396C45.1125 11.2372 45.1458 11.4289 45.1458 11.6146V12.0932H42.5458C42.5505 12.1979 42.5755 12.2943 42.6208 12.3824C42.666 12.4705 42.7279 12.5467 42.8065 12.611C42.8851 12.6753 42.9755 12.7253 43.0779 12.761C43.1803 12.7967 43.2886 12.8146 43.4029 12.8146C43.6267 12.8146 43.7982 12.7753 43.9172 12.6967C44.0363 12.6182 44.122 12.5241 44.1744 12.4146L44.9458 12.8432C44.9029 12.9336 44.8434 13.0277 44.7672 13.1253C44.691 13.2229 44.5922 13.3122 44.4708 13.3931C44.3494 13.4741 44.2017 13.5408 44.0279 13.5932ZM44.2315 11.3217H42.5601C42.6029 11.1693 42.6958 11.0348 42.8386 10.9182C42.9815 10.8015 43.1672 10.7432 43.3958 10.7432C43.6244 10.7432 43.8136 10.7979 43.9636 10.9074C44.1136 11.017 44.2029 11.1551 44.2315 11.3217ZM48.8055 12.7146V13.5717H47.3055C47.1436 13.5717 47.0114 13.5193 46.909 13.4146C46.8067 13.3098 46.7555 13.1765 46.7555 13.0146V10.886H45.7055V10.0289H46.7555V8.57172H47.6555V10.0289H48.934V10.886H47.6555V12.5003C47.6555 12.6432 47.7198 12.7146 47.8483 12.7146H48.8055ZM57.1034 12.7146V13.5717H53.9749V12.7146H55.1749V10.886H54.0606V10.0289H56.0749V12.7146H57.1034ZM60.9631 13.5717V12.7146H60.006C59.8774 12.7146 59.8131 12.6432 59.8131 12.5003V10.886H61.0917V10.0289H59.8131V8.57172H58.9131V10.0289H57.8631V10.886H58.9131V13.0146C58.9131 13.1765 58.9643 13.3098 59.0667 13.4146C59.1691 13.5193 59.3012 13.5717 59.4631 13.5717H60.9631ZM68.3932 13.5503C68.1718 13.6312 67.9397 13.6717 67.6968 13.6717C67.4539 13.6717 67.2218 13.6312 67.0004 13.5503C66.7789 13.4693 66.5825 13.3515 66.4111 13.1967C66.2397 13.042 66.1039 12.8515 66.0039 12.6253C65.9039 12.3991 65.8539 12.1384 65.8539 11.8432V11.7574C65.8539 11.467 65.9039 11.2086 66.0039 10.9824C66.1039 10.7562 66.2397 10.5646 66.4111 10.4074C66.5825 10.2503 66.7789 10.1312 67.0004 10.0503C67.2218 9.96934 67.4539 9.92886 67.6968 9.92886C67.9397 9.92886 68.1718 9.96934 68.3932 10.0503C68.6147 10.1312 68.8111 10.2503 68.9825 10.4074C69.1539 10.5646 69.2897 10.7562 69.3897 10.9824C69.4897 11.2086 69.5397 11.467 69.5397 11.7574V11.8432C69.5397 12.1384 69.4897 12.3991 69.3897 12.6253C69.2897 12.8515 69.1539 13.042 68.9825 13.1967C68.8111 13.3515 68.6147 13.4693 68.3932 13.5503ZM67.6968 12.8146C67.5682 12.8146 67.4468 12.7931 67.3325 12.7503C67.2182 12.7074 67.1182 12.6455 67.0325 12.5646C66.9468 12.4836 66.8789 12.3848 66.8289 12.2681C66.7789 12.1515 66.7539 12.0193 66.7539 11.8717V11.7289C66.7539 11.5812 66.7789 11.4491 66.8289 11.3324C66.8789 11.2158 66.9468 11.117 67.0325 11.036C67.1182 10.9551 67.2182 10.8932 67.3325 10.8503C67.4468 10.8074 67.5682 10.786 67.6968 10.786C67.8254 10.786 67.9468 10.8074 68.0611 10.8503C68.1754 10.8932 68.2754 10.9551 68.3611 11.036C68.4468 11.117 68.5147 11.2158 68.5647 11.3324C68.6147 11.4491 68.6397 11.5812 68.6397 11.7289V11.8717C68.6397 12.0193 68.6147 12.1515 68.5647 12.2681C68.5147 12.3848 68.4468 12.4836 68.3611 12.5646C68.2754 12.6455 68.1754 12.7074 68.0611 12.7503C67.9468 12.7931 67.8254 12.8146 67.6968 12.8146ZM71.0208 11.7289V13.5717H70.1208V10.0289H71.0208V10.5574H71.1494C71.2303 10.3574 71.3613 10.2027 71.5422 10.0932C71.7232 9.98363 71.9351 9.92886 72.1779 9.92886C72.3494 9.92886 72.5101 9.95625 72.6601 10.011C72.8101 10.0658 72.9422 10.1503 73.0565 10.2646C73.1708 10.3789 73.2601 10.5241 73.3244 10.7003C73.3886 10.8765 73.4208 11.086 73.4208 11.3289V13.5717H72.5208V11.5574C72.5208 11.3051 72.4601 11.1062 72.3386 10.961C72.2172 10.8158 72.0422 10.7431 71.8136 10.7431C71.547 10.7431 71.3482 10.8324 71.2172 11.011C71.0863 11.1896 71.0208 11.4289 71.0208 11.7289Z"
        fill="#495567" />
    <path fill-rule="evenodd" clip-rule="evenodd"
        d="M12.3946 10.1694C12.9123 9.91976 13.5059 9.94657 14.0039 10.2464L23.9124 16.0164L21.0744 18.8677L12.3946 10.1694ZM11.4287 11.7296C11.4287 11.4641 11.4876 11.2062 11.5971 10.9744L20.275 19.6708L11.5986 28.3884C11.488 28.1614 11.4287 27.9073 11.4287 27.6407V11.7296ZM21.0756 20.4728L12.4097 29.1798C12.6397 29.2863 12.8844 29.3327 13.1287 29.3327C13.4304 29.3327 13.7313 29.2606 14.004 29.0967L23.9143 23.318L21.0756 20.4728ZM27.6756 18.2076C27.679 18.2095 27.6827 18.2118 27.6861 18.214C28.1978 18.5244 28.5033 19.0674 28.5033 19.6663C28.5033 20.2651 28.1978 20.8081 27.6861 21.1189L24.9263 22.7278L21.8746 19.6697L24.9244 16.6055L27.6756 18.2076Z"
        fill="#495567" />
</svg>